<svg width="665" height="83" viewBox="0 0 665 83" fill="none" xmlns="http://www.w3.org/2000/svg">
<path d="M31.72 82.44C24.28 82.44 18.2 81.56 13.48 79.8C8.76 77.96 5.4 75.2 3.4 71.52C1.4 67.76 0.68 62.96 1.24 57.12C1.4 55.92 2.04 55.32 3.16 55.32H21.4C22.6 55.32 23.16 55.84 23.08 56.88C22.92 58.88 23.6 60.52 25.12 61.8C26.64 63 29 63.6 32.2 63.6C35.48 63.6 37.8 63.28 39.16 62.64C40.6 61.92 41.32 60.8 41.32 59.28C41.32 58.64 41.12 58.04 40.72 57.48C40.4 56.92 39.8 56.36 38.92 55.8C38.04 55.24 36.8 54.64 35.2 54L18.16 46.44C13.92 44.52 10.6 42.48 8.2 40.32C5.88 38.16 4.24 35.72 3.28 33C2.4 30.2 1.96 26.96 1.96 23.28C2.04 16.24 4.48 10.76 9.28 6.84C14.08 2.91999 21.36 0.959993 31.12 0.959993C38.48 0.959993 44.52 1.87999 49.24 3.71999C54.04 5.47999 57.48 8.16 59.56 11.76C61.72 15.36 62.52 19.96 61.96 25.56C61.88 26.84 61.28 27.48 60.16 27.48H41.8C41.24 27.48 40.8 27.32 40.48 27C40.16 26.6 40.04 26.12 40.12 25.56C40.28 23.88 39.6 22.44 38.08 21.24C36.64 19.96 34.52 19.32 31.72 19.32C29.24 19.32 27.36 19.72 26.08 20.52C24.88 21.32 24.28 22.48 24.28 24C24.28 24.64 24.48 25.28 24.88 25.92C25.28 26.48 25.92 27.04 26.8 27.6C27.68 28.16 28.88 28.76 30.4 29.4L47.32 36.72C51.56 38.56 54.88 40.56 57.28 42.72C59.68 44.88 61.36 47.36 62.32 50.16C63.28 52.96 63.72 56.2 63.64 59.88C63.56 67.4 61 73.04 55.96 76.8C51 80.56 42.92 82.44 31.72 82.44ZM92.4972 81C91.4572 81 90.7772 80.52 90.4572 79.56L66.3372 4.44C65.9372 3.08 66.4172 2.4 67.7772 2.4H88.2972C89.4172 2.4 90.0972 2.88 90.3372 3.84L100.777 44.28C101.577 47.32 102.257 50.36 102.817 53.4C103.377 56.36 103.937 59.36 104.497 62.4H104.857C105.337 59.28 105.897 56.2 106.537 53.16C107.177 50.12 107.897 47.04 108.697 43.92L118.777 3.96C119.017 2.92 119.697 2.4 120.817 2.4H141.337C142.697 2.4 143.177 3.08 142.777 4.44L118.657 79.56C118.337 80.52 117.657 81 116.617 81H92.4972ZM181.049 82.44C169.529 82.44 160.769 79.76 154.769 74.4C148.769 68.96 145.769 60.92 145.769 50.28V33.12C145.769 22.4 148.769 14.36 154.769 9C160.769 3.63999 169.529 0.959993 181.049 0.959993C192.569 0.959993 201.329 3.63999 207.329 9C213.329 14.36 216.329 22.4 216.329 33.12V50.28C216.329 60.92 213.329 68.96 207.329 74.4C201.329 79.76 192.569 82.44 181.049 82.44ZM181.049 63C185.529 63 188.809 61.76 190.889 59.28C192.969 56.8 194.009 53.24 194.009 48.6V34.8C194.009 30.16 192.969 26.6 190.889 24.12C188.809 21.64 185.529 20.4 181.049 20.4C176.649 20.4 173.369 21.64 171.209 24.12C169.129 26.6 168.089 30.16 168.089 34.8V48.6C168.089 53.24 169.129 56.8 171.209 59.28C173.369 61.76 176.649 63 181.049 63ZM261.085 82.44C249.645 82.44 241.045 79.92 235.285 74.88C229.605 69.76 226.765 61.68 226.765 50.64V4.19999C226.765 3 227.365 2.4 228.565 2.4H247.405C247.885 2.4 248.285 2.56 248.605 2.88C248.925 3.2 249.085 3.64 249.085 4.19999V49.32C249.085 53.72 249.965 57.16 251.725 59.64C253.485 62.04 256.605 63.24 261.085 63.24C265.565 63.24 268.645 62.04 270.325 59.64C272.085 57.16 272.965 53.72 272.965 49.32V4.19999C272.965 3 273.565 2.4 274.765 2.4H293.485C294.685 2.4 295.285 3 295.285 4.19999V50.64C295.285 61.68 292.445 69.76 286.765 74.88C281.085 79.92 272.525 82.44 261.085 82.44ZM327.81 81C326.77 81 326.09 80.52 325.77 79.56L301.65 4.44C301.25 3.08 301.73 2.4 303.09 2.4H323.61C324.73 2.4 325.41 2.88 325.65 3.84L336.09 44.28C336.89 47.32 337.57 50.36 338.13 53.4C338.69 56.36 339.25 59.36 339.81 62.4H340.17C340.65 59.28 341.21 56.2 341.85 53.16C342.49 50.12 343.21 47.04 344.01 43.92L354.09 3.96C354.33 2.92 355.01 2.4 356.13 2.4H376.65C378.01 2.4 378.49 3.08 378.09 4.44L353.97 79.56C353.65 80.52 352.97 81 351.93 81H327.81ZM416.361 82.44C404.841 82.44 396.081 79.76 390.081 74.4C384.081 68.96 381.081 60.92 381.081 50.28V33.12C381.081 22.4 384.081 14.36 390.081 9C396.081 3.63999 404.841 0.959993 416.361 0.959993C427.881 0.959993 436.641 3.63999 442.641 9C448.641 14.36 451.641 22.4 451.641 33.12V50.28C451.641 60.92 448.641 68.96 442.641 74.4C436.641 79.76 427.881 82.44 416.361 82.44ZM416.361 63C420.841 63 424.121 61.76 426.201 59.28C428.281 56.8 429.321 53.24 429.321 48.6V34.8C429.321 30.16 428.281 26.6 426.201 24.12C424.121 21.64 420.841 20.4 416.361 20.4C411.961 20.4 408.681 21.64 406.521 24.12C404.441 26.6 403.401 30.16 403.401 34.8V48.6C403.401 53.24 404.441 56.8 406.521 59.28C408.681 61.76 411.961 63 416.361 63ZM464.478 81C463.278 81 462.678 80.4 462.678 79.2V4.19999C462.678 3 463.278 2.4 464.478 2.4H483.678C484.558 2.4 484.998 3 484.998 4.19999V61.8H513.918C515.038 61.8 515.598 62.36 515.598 63.48V79.2C515.598 80.4 515.038 81 513.918 81H464.478ZM525.415 81C524.215 81 523.615 80.4 523.615 79.2V4.19999C523.615 3 524.215 2.4 525.415 2.4H553.855C564.015 2.4 571.695 4 576.895 7.2C582.095 10.32 584.695 15.08 584.695 21.48C584.695 26.36 583.655 30.24 581.575 33.12C579.575 35.92 576.535 38 572.455 39.36V39.84C577.255 40.72 581.055 42.52 583.855 45.24C586.655 47.96 588.055 51.88 588.055 57C588.055 65.64 585.375 71.8 580.015 75.48C574.735 79.16 565.935 81 553.615 81H525.415ZM545.935 63.12H554.935C558.695 63.12 561.415 62.6 563.095 61.56C564.855 60.44 565.735 58.56 565.735 55.92C565.735 53.76 564.855 52.16 563.095 51.12C561.335 50 558.535 49.44 554.695 49.44H545.935V63.12ZM545.935 33.6H553.735C556.775 33.6 558.975 33 560.335 31.8C561.695 30.6 562.375 28.88 562.375 26.64C562.375 24.64 561.575 23.08 559.975 21.96C558.455 20.84 556.175 20.28 553.135 20.28H545.935V33.6ZM630.694 82.44C619.254 82.44 610.654 79.92 604.894 74.88C599.214 69.76 596.374 61.68 596.374 50.64V4.19999C596.374 3 596.974 2.4 598.174 2.4H617.014C617.494 2.4 617.894 2.56 618.214 2.88C618.534 3.2 618.694 3.64 618.694 4.19999V49.32C618.694 53.72 619.574 57.16 621.334 59.64C623.094 62.04 626.214 63.24 630.694 63.24C635.174 63.24 638.254 62.04 639.934 59.64C641.694 57.16 642.574 53.72 642.574 49.32V4.19999C642.574 3 643.174 2.4 644.374 2.4H663.094C664.294 2.4 664.894 3 664.894 4.19999V50.64C664.894 61.68 662.054 69.76 656.374 74.88C650.694 79.92 642.134 82.44 630.694 82.44Z" fill="white"/>
</svg>
