<svg width="640" height="83" viewBox="0 0 640 83" fill="none" xmlns="http://www.w3.org/2000/svg">
<path d="M29.48 82.44C22.76 82.44 17.2 81.52 12.8 79.68C8.48 77.84 5.36 75.2 3.44 71.76C1.52 68.24 0.76 64 1.16 59.04C1.32 57.68 1.88 57 2.84 57H14.12C15.16 57 15.64 57.6 15.56 58.8C15.56 62.72 16.76 65.6 19.16 67.44C21.56 69.2 25.24 70.08 30.2 70.08C35.08 70.08 38.68 69.32 41 67.8C43.4 66.2 44.6 63.76 44.6 60.48C44.6 58.96 44.32 57.64 43.76 56.52C43.2 55.32 42.24 54.28 40.88 53.4C39.52 52.44 37.68 51.48 35.36 50.52L17.96 43.08C14.12 41.4 11.04 39.6 8.72 37.68C6.4 35.68 4.76 33.4 3.8 30.84C2.84 28.28 2.36 25.36 2.36 22.08C2.44 15.28 4.72 10.08 9.2 6.47999C13.68 2.88 20.36 1.08 29.24 1.08C35.48 1.08 40.76 1.96 45.08 3.71999C49.48 5.4 52.76 7.92 54.92 11.28C57.08 14.56 57.92 18.68 57.44 23.64C57.28 25.08 56.8 25.8 56 25.8H44.6C44.12 25.8 43.76 25.64 43.52 25.32C43.28 25 43.2 24.44 43.28 23.64C43.52 20.44 42.36 17.92 39.8 16.08C37.32 14.16 33.76 13.2 29.12 13.2C25.04 13.2 21.96 13.92 19.88 15.36C17.8 16.8 16.76 18.96 16.76 21.84C16.76 23.36 17.04 24.72 17.6 25.92C18.16 27.04 19.12 28.08 20.48 29.04C21.92 30 23.84 31 26.24 32.04L43.4 39.36C47.32 40.96 50.4 42.76 52.64 44.76C54.96 46.68 56.6 48.92 57.56 51.48C58.6 54.04 59.08 57.08 59 60.6C59 67.56 56.64 72.96 51.92 76.8C47.2 80.56 39.72 82.44 29.48 82.44ZM92.1716 81C91.2916 81 90.7316 80.64 90.4916 79.92L65.4116 3.96C65.0916 2.92 65.4516 2.4 66.4916 2.4H79.0916C79.9716 2.4 80.5316 2.76 80.7716 3.48L95.1716 50.88C96.0516 53.76 96.8916 56.64 97.6916 59.52C98.4916 62.4 99.2516 65.28 99.9716 68.16H100.212C100.932 65.28 101.692 62.44 102.492 59.64C103.372 56.76 104.212 53.88 105.012 51L119.772 3.6C120.012 2.8 120.572 2.4 121.452 2.4H134.052C135.092 2.4 135.452 2.92 135.132 3.96L109.572 79.92C109.332 80.64 108.812 81 108.012 81H92.1716ZM174.222 82.44C163.662 82.44 155.742 79.92 150.462 74.88C145.182 69.76 142.542 62.44 142.542 52.92V30.48C142.542 20.88 145.182 13.56 150.462 8.52C155.742 3.47999 163.662 0.959993 174.222 0.959993C184.702 0.959993 192.582 3.47999 197.862 8.52C203.142 13.56 205.782 20.88 205.782 30.48V52.92C205.782 62.44 203.142 69.76 197.862 74.88C192.582 79.92 184.702 82.44 174.222 82.44ZM174.222 69.84C179.902 69.84 184.182 68.36 187.062 65.4C189.942 62.36 191.382 57.96 191.382 52.2V31.2C191.382 25.44 189.942 21.08 187.062 18.12C184.182 15.08 179.902 13.56 174.222 13.56C168.542 13.56 164.222 15.08 161.262 18.12C158.382 21.08 156.942 25.44 156.942 31.2V52.2C156.942 57.96 158.382 62.36 161.262 65.4C164.222 68.36 168.542 69.84 174.222 69.84ZM252.386 82.44C242.386 82.44 234.746 79.96 229.466 75C224.186 70.04 221.546 62.64 221.546 52.8V3.84C221.546 2.88 221.986 2.4 222.866 2.4H234.506C234.986 2.4 235.346 2.52 235.586 2.76C235.826 3 235.946 3.36 235.946 3.84V52.56C235.946 58.08 237.306 62.36 240.026 65.4C242.746 68.36 246.866 69.84 252.386 69.84C257.906 69.84 262.026 68.36 264.746 65.4C267.466 62.36 268.826 58.08 268.826 52.56V3.84C268.826 2.88 269.266 2.4 270.146 2.4H281.786C282.746 2.4 283.226 2.88 283.226 3.84V53.04C283.226 62.56 280.546 69.84 275.186 74.88C269.826 79.92 262.226 82.44 252.386 82.44ZM319.75 81C318.87 81 318.31 80.64 318.07 79.92L292.99 3.96C292.67 2.92 293.03 2.4 294.07 2.4H306.67C307.55 2.4 308.11 2.76 308.35 3.48L322.75 50.88C323.63 53.76 324.47 56.64 325.27 59.52C326.07 62.4 326.83 65.28 327.55 68.16H327.79C328.51 65.28 329.27 62.44 330.07 59.64C330.95 56.76 331.79 53.88 332.59 51L347.35 3.6C347.59 2.8 348.15 2.4 349.03 2.4H361.63C362.67 2.4 363.03 2.92 362.71 3.96L337.15 79.92C336.91 80.64 336.39 81 335.59 81H319.75ZM401.8 82.44C391.24 82.44 383.32 79.92 378.04 74.88C372.76 69.76 370.12 62.44 370.12 52.92V30.48C370.12 20.88 372.76 13.56 378.04 8.52C383.32 3.47999 391.24 0.959993 401.8 0.959993C412.28 0.959993 420.16 3.47999 425.44 8.52C430.72 13.56 433.36 20.88 433.36 30.48V52.92C433.36 62.44 430.72 69.76 425.44 74.88C420.16 79.92 412.28 82.44 401.8 82.44ZM401.8 69.84C407.48 69.84 411.76 68.36 414.64 65.4C417.52 62.36 418.96 57.96 418.96 52.2V31.2C418.96 25.44 417.52 21.08 414.64 18.12C411.76 15.08 407.48 13.56 401.8 13.56C396.12 13.56 391.8 15.08 388.84 18.12C385.96 21.08 384.52 25.44 384.52 31.2V52.2C384.52 57.96 385.96 62.36 388.84 65.4C391.8 68.36 396.12 69.84 401.8 69.84ZM451.044 81C450.164 81 449.724 80.52 449.724 79.56V3.84C449.724 2.88 450.164 2.4 451.044 2.4H462.804C463.684 2.4 464.124 2.88 464.124 3.84V68.28H495.684C496.644 68.28 497.124 68.76 497.124 69.72V79.56C497.124 80.52 496.644 81 495.684 81H451.044ZM509.52 81C508.64 81 508.2 80.52 508.2 79.56V3.84C508.2 2.88 508.64 2.4 509.52 2.4H533.4C542.84 2.4 549.92 4 554.64 7.2C559.44 10.4 561.84 15.28 561.84 21.84C561.84 26.4 560.8 30.04 558.72 32.76C556.72 35.48 553.44 37.64 548.88 39.24V39.6C554.24 40.56 558.28 42.64 561 45.84C563.8 48.96 565.2 53.2 565.2 58.56C565.2 66.4 562.68 72.12 557.64 75.72C552.6 79.24 544.52 81 533.4 81H509.52ZM522.6 69H533.76C539.84 69 544.2 68.16 546.84 66.48C549.48 64.72 550.8 61.8 550.8 57.72C550.8 53.72 549.44 50.8 546.72 48.96C544.08 47.12 539.8 46.2 533.88 46.2H522.6V69ZM522.6 35.28H533.04C538.08 35.28 541.72 34.4 543.96 32.64C546.28 30.88 547.44 28.16 547.44 24.48C547.44 20.88 546.24 18.28 543.84 16.68C541.44 15.08 537.52 14.28 532.08 14.28H522.6V35.28ZM608.518 82.44C598.518 82.44 590.878 79.96 585.598 75C580.318 70.04 577.678 62.64 577.678 52.8V3.84C577.678 2.88 578.118 2.4 578.998 2.4H590.638C591.118 2.4 591.478 2.52 591.718 2.76C591.958 3 592.078 3.36 592.078 3.84V52.56C592.078 58.08 593.438 62.36 596.158 65.4C598.878 68.36 602.998 69.84 608.518 69.84C614.038 69.84 618.158 68.36 620.878 65.4C623.598 62.36 624.958 58.08 624.958 52.56V3.84C624.958 2.88 625.398 2.4 626.278 2.4H637.918C638.878 2.4 639.358 2.88 639.358 3.84V53.04C639.358 62.56 636.678 69.84 631.318 74.88C625.958 79.92 618.358 82.44 608.518 82.44Z" fill="white"/>
</svg>
