<svg width="626" height="83" viewBox="0 0 626 83" fill="none" xmlns="http://www.w3.org/2000/svg">
<path d="M28.36 82.44C21.96 82.44 16.68 81.52 12.52 79.68C8.44 77.76 5.44 75.12 3.52 71.76C1.68 68.4 0.92 64.52 1.24 60.12C1.32 58.68 1.8 57.96 2.68 57.96H10.24C11.2 57.96 11.68 58.6 11.68 59.88C11.68 64.76 13.12 68.28 16 70.44C18.88 72.52 23.28 73.56 29.2 73.56C34.88 73.56 39.16 72.56 42.04 70.56C45 68.48 46.48 65.36 46.48 61.2C46.48 59.12 46.12 57.36 45.4 55.92C44.76 54.4 43.64 53.08 42.04 51.96C40.44 50.84 38.28 49.72 35.56 48.6L17.92 41.28C14.24 39.76 11.24 38.08 8.92 36.24C6.68 34.32 5.04 32.16 4 29.76C3.04 27.28 2.56 24.48 2.56 21.36C2.64 14.72 4.84 9.68 9.16 6.24C13.56 2.8 19.92 1.08 28.24 1.08C33.92 1.08 38.84 1.92 43 3.6C47.16 5.28 50.32 7.72 52.48 10.92C54.64 14.12 55.52 18.04 55.12 22.68C54.96 24.2 54.52 24.96 53.8 24.96H46.12C45.72 24.96 45.4 24.8 45.16 24.48C45 24.16 44.96 23.56 45.04 22.68C45.36 18.6 43.96 15.48 40.84 13.32C37.8 11.08 33.48 9.96 27.88 9.96C22.92 9.96 19.16 10.84 16.6 12.6C14.12 14.36 12.84 17.08 12.76 20.76C12.76 22.68 13.08 24.36 13.72 25.8C14.44 27.24 15.6 28.56 17.2 29.76C18.88 30.96 21.16 32.16 24.04 33.36L41.44 40.68C45.12 42.2 48.08 43.88 50.32 45.72C52.56 47.56 54.16 49.72 55.12 52.2C56.16 54.6 56.68 57.52 56.68 60.96C56.68 67.68 54.4 72.96 49.84 76.8C45.28 80.56 38.12 82.44 28.36 82.44ZM92.0088 81C91.2888 81 90.8088 80.68 90.5688 80.04L64.8888 3.71999C64.6488 2.84 64.9688 2.4 65.8488 2.4H74.2488C74.9688 2.4 75.4488 2.72 75.6888 3.36L92.2488 54.48C93.1288 57.2 94.0088 59.96 94.8888 62.76C95.8488 65.56 96.7288 68.36 97.5288 71.16H97.7688C98.6488 68.44 99.5288 65.72 100.409 63C101.369 60.28 102.289 57.56 103.169 54.84L120.449 3.36C120.689 2.72 121.169 2.4 121.889 2.4H130.169C131.049 2.4 131.369 2.84 131.129 3.71999L104.849 80.04C104.609 80.68 104.129 81 103.409 81H92.0088ZM170.512 82.44C160.512 82.44 153.032 80 148.072 75.12C143.192 70.16 140.752 63.2 140.752 54.24V29.16C140.752 20.12 143.192 13.16 148.072 8.28C153.032 3.4 160.512 0.959993 170.512 0.959993C180.512 0.959993 187.952 3.4 192.832 8.28C197.792 13.16 200.272 20.12 200.272 29.16V54.24C200.272 63.2 197.792 70.16 192.832 75.12C187.952 80 180.512 82.44 170.512 82.44ZM170.512 73.44C176.912 73.44 181.752 71.8 185.032 68.52C188.392 65.24 190.072 60.44 190.072 54.12V29.28C190.072 22.88 188.392 18.08 185.032 14.88C181.752 11.6 176.912 9.96 170.512 9.96C164.192 9.96 159.352 11.6 155.992 14.88C152.632 18.08 150.952 22.88 150.952 29.28V54.12C150.952 60.44 152.632 65.24 155.992 68.52C159.352 71.8 164.192 73.44 170.512 73.44ZM247.624 82.44C238.424 82.44 231.264 80 226.144 75.12C221.104 70.24 218.584 63.2 218.584 54V3.6C218.584 2.8 218.984 2.4 219.784 2.4H227.584C227.984 2.4 228.264 2.52 228.424 2.76C228.664 2.92 228.784 3.2 228.784 3.6V54.36C228.784 60.44 230.384 65.16 233.584 68.52C236.864 71.8 241.544 73.44 247.624 73.44C253.704 73.44 258.344 71.8 261.544 68.52C264.824 65.16 266.464 60.44 266.464 54.36V3.6C266.464 2.8 266.864 2.4 267.664 2.4H275.464C276.264 2.4 276.664 2.8 276.664 3.6V54.24C276.664 62.96 274.064 69.84 268.864 74.88C263.744 79.92 256.664 82.44 247.624 82.44ZM315.251 81C314.531 81 314.051 80.68 313.811 80.04L288.131 3.71999C287.891 2.84 288.211 2.4 289.091 2.4H297.491C298.211 2.4 298.691 2.72 298.931 3.36L315.491 54.48C316.371 57.2 317.251 59.96 318.131 62.76C319.091 65.56 319.971 68.36 320.771 71.16H321.011C321.891 68.44 322.771 65.72 323.651 63C324.611 60.28 325.531 57.56 326.411 54.84L343.691 3.36C343.931 2.72 344.411 2.4 345.131 2.4H353.411C354.291 2.4 354.611 2.84 354.371 3.71999L328.091 80.04C327.851 80.68 327.371 81 326.651 81H315.251ZM393.754 82.44C383.754 82.44 376.274 80 371.314 75.12C366.434 70.16 363.994 63.2 363.994 54.24V29.16C363.994 20.12 366.434 13.16 371.314 8.28C376.274 3.4 383.754 0.959993 393.754 0.959993C403.754 0.959993 411.194 3.4 416.074 8.28C421.034 13.16 423.514 20.12 423.514 29.16V54.24C423.514 63.2 421.034 70.16 416.074 75.12C411.194 80 403.754 82.44 393.754 82.44ZM393.754 73.44C400.154 73.44 404.994 71.8 408.274 68.52C411.634 65.24 413.314 60.44 413.314 54.12V29.28C413.314 22.88 411.634 18.08 408.274 14.88C404.994 11.6 400.154 9.96 393.754 9.96C387.434 9.96 382.594 11.6 379.234 14.88C375.874 18.08 374.194 22.88 374.194 29.28V54.12C374.194 60.44 375.874 65.24 379.234 68.52C382.594 71.8 387.434 73.44 393.754 73.44ZM443.627 81C442.827 81 442.427 80.6 442.427 79.8V3.6C442.427 2.8 442.827 2.4 443.627 2.4H451.427C452.227 2.4 452.627 2.8 452.627 3.6V71.76H485.747C486.547 71.76 486.947 72.16 486.947 72.96V79.8C486.947 80.6 486.547 81 485.747 81H443.627ZM500.697 81C499.897 81 499.497 80.6 499.497 79.8V3.6C499.497 2.8 499.897 2.4 500.697 2.4H522.057C531.177 2.4 537.977 4.04 542.457 7.32C547.017 10.52 549.297 15.44 549.297 22.08C549.297 26.4 548.257 29.92 546.177 32.64C544.097 35.28 540.697 37.48 535.977 39.24V39.48C541.577 40.52 545.737 42.72 548.457 46.08C551.257 49.44 552.657 53.88 552.657 59.4C552.657 66.76 550.177 72.2 545.217 75.72C540.337 79.24 532.657 81 522.177 81H500.697ZM509.697 72.12H522.057C529.417 72.12 534.657 71.08 537.777 69C540.897 66.92 542.457 63.48 542.457 58.68C542.457 53.72 540.857 50.12 537.657 47.88C534.537 45.56 529.457 44.4 522.417 44.4H509.697V72.12ZM509.697 36.12H521.577C527.657 36.12 532.097 35.12 534.897 33.12C537.697 31.04 539.097 27.8 539.097 23.4C539.097 18.92 537.657 15.76 534.777 13.92C531.977 12.08 527.217 11.16 520.497 11.16H509.697V36.12ZM596.374 82.44C587.174 82.44 580.014 80 574.894 75.12C569.854 70.24 567.334 63.2 567.334 54V3.6C567.334 2.8 567.734 2.4 568.534 2.4H576.334C576.734 2.4 577.014 2.52 577.174 2.76C577.414 2.92 577.534 3.2 577.534 3.6V54.36C577.534 60.44 579.134 65.16 582.334 68.52C585.614 71.8 590.294 73.44 596.374 73.44C602.454 73.44 607.094 71.8 610.294 68.52C613.574 65.16 615.214 60.44 615.214 54.36V3.6C615.214 2.8 615.614 2.4 616.414 2.4H624.214C625.014 2.4 625.414 2.8 625.414 3.6V54.24C625.414 62.96 622.814 69.84 617.614 74.88C612.494 79.92 605.414 82.44 596.374 82.44Z" fill="white"/>
</svg>
